<?xml version="1.0" encoding="utf-8"?>
<!-- Svg Vector Icons : http://www.onlinewebfonts.com/icon -->
<!DOCTYPE svg PUBLIC "-//W3C//DTD SVG 1.1//EN" "http://www.w3.org/Graphics/SVG/1.1/DTD/svg11.dtd">
<svg version="1.1" xmlns="http://www.w3.org/2000/svg" xmlns:xlink="http://www.w3.org/1999/xlink" x="0px" y="0px" viewBox="0 0 1000 1000" enable-background="new 0 0 1000 1000" xml:space="preserve">
<metadata> Svg Vector Icons : http://www.onlinewebfonts.com/icon </metadata>
<g><path d="M508.6,487.1c50.3,0,91.2-40.9,91.2-91.2c0-50.3-40.9-91.2-91.2-91.2c-50.3,0-91.2,40.9-91.2,91.2C417.4,446.2,458.3,487.1,508.6,487.1z M508.6,332.8c34.9,0,63.2,28.4,63.2,63.2c0,34.8-28.4,63.2-63.2,63.2c-34.8,0-63.2-28.4-63.2-63.2C445.4,361.1,473.8,332.8,508.6,332.8z"/><path d="M508.6,409.9h34.5c7.7,0,14-6.3,14-14c0-7.7-6.3-14-14-14h-20.5v-24.6c0-7.7-6.3-14-14-14c-7.7,0-14,6.3-14,14v38.6C494.6,403.7,500.9,409.9,508.6,409.9z"/><path d="M796.1,475.7h-30.8c-10.7,0-19.4,8.7-19.4,19.5v56.2c0,10.7,8.7,19.4,19.4,19.4h30.8c10.7,0,19.4-8.7,19.4-19.4v-56.2C815.5,484.4,806.8,475.7,796.1,475.7z M787.5,542.7h-13.7v-39h13.7V542.7z"/><path d="M887.4,475.7h-30.8c-10.7,0-19.4,8.7-19.4,19.5v56.2c0,10.7,8.7,19.4,19.4,19.4h30.8c10.7,0,19.5-8.7,19.5-19.4v-56.2C906.8,484.4,898.1,475.7,887.4,475.7z M878.8,542.7h-13.7v-39h13.7V542.7z"/><path d="M796.1,580.3h-30.8c-10.7,0-19.4,8.7-19.4,19.4v56.2c0,10.7,8.7,19.4,19.4,19.4h30.8c10.7,0,19.4-8.7,19.4-19.4v-56.2C815.5,589,806.8,580.3,796.1,580.3z M787.5,647.3h-13.7v-39h13.7V647.3z"/><path d="M887.4,580.3h-30.8c-10.7,0-19.4,8.7-19.4,19.4v56.2c0,10.7,8.7,19.4,19.4,19.4h30.8c10.7,0,19.5-8.7,19.5-19.4v-56.2C906.8,589,898.1,580.3,887.4,580.3z M878.8,647.3h-13.7v-39h13.7V647.3z"/><path d="M796.1,684.9h-30.8c-10.7,0-19.4,8.7-19.4,19.4v56.2c0,10.7,8.7,19.4,19.4,19.4h30.8c10.7,0,19.4-8.7,19.4-19.4v-56.2C815.5,693.6,806.8,684.9,796.1,684.9z M787.5,752h-13.7v-39h13.7V752z"/><path d="M887.4,684.9h-30.8c-10.7,0-19.4,8.7-19.4,19.4v56.2c0,10.7,8.7,19.4,19.4,19.4h30.8c10.7,0,19.5-8.7,19.5-19.4v-56.2C906.8,693.6,898.1,684.9,887.4,684.9z M878.8,752h-13.7v-39h13.7V752z"/><path d="M250.9,475.7H220c-10.7,0-19.4,8.7-19.4,19.5v56.2c0,10.7,8.7,19.4,19.4,19.4h30.8c10.7,0,19.4-8.7,19.4-19.4v-56.2C270.3,484.4,261.6,475.7,250.9,475.7z M242.3,542.7h-13.7v-39h13.7V542.7z"/><path d="M159.7,475.7h-30.8c-10.7,0-19.4,8.7-19.4,19.5v56.2c0,10.7,8.7,19.4,19.4,19.4h30.8c10.7,0,19.4-8.7,19.4-19.4v-56.2C179.1,484.4,170.4,475.7,159.7,475.7z M151.1,542.7h-13.6v-39h13.6V542.7z"/><path d="M250.9,580.3H220c-10.7,0-19.4,8.7-19.4,19.4v56.2c0,10.7,8.7,19.4,19.4,19.4h30.8c10.7,0,19.4-8.7,19.4-19.4v-56.2C270.3,589,261.6,580.3,250.9,580.3z M242.3,647.3h-13.7v-39h13.7V647.3z"/><path d="M159.7,580.3h-30.8c-10.7,0-19.4,8.7-19.4,19.4v56.2c0,10.7,8.7,19.4,19.4,19.4h30.8c10.7,0,19.4-8.7,19.4-19.4v-56.2C179.1,589,170.4,580.3,159.7,580.3z M151.1,647.3h-13.6v-39h13.6V647.3z"/><path d="M250.9,684.9H220c-10.7,0-19.4,8.7-19.4,19.4v56.2c0,10.7,8.7,19.4,19.4,19.4h30.8c10.7,0,19.4-8.7,19.4-19.4v-56.2C270.3,693.6,261.6,684.9,250.9,684.9z M242.3,751.9h-13.7v-39h13.7V751.9z"/><path d="M159.7,684.9h-30.8c-10.7,0-19.4,8.7-19.4,19.4v56.2c0,10.7,8.7,19.4,19.4,19.4h30.8c10.7,0,19.4-8.7,19.4-19.4v-56.2C179.1,693.6,170.4,684.9,159.7,684.9z M151.1,751.9h-13.6v-39h13.6V751.9z"/><path d="M513.8,546.4h-10.5c-60.2,0-109.2,49-109.2,109.2v98.2c0,7.7,6.3,14,14,14c7.7,0,14-6.2,14-14v-98.2c0-44.8,36.4-81.2,81.2-81.2h10.5c44.8,0,81.3,36.4,81.3,81.2v98.2c0,7.7,6.3,14,14,14c7.7,0,14-6.2,14-14v-98.2C623.1,595.4,574.1,546.4,513.8,546.4z"/><path d="M976,796.9h-16.6V475.1c0-24.5-19.9-44.4-44.4-44.4H722.1v-124c0-31.8-25.8-57.6-57.6-57.6h-142V138.5c0-3.8-1.6-7.5-4.3-10.1c-8.5-8.2-18.3-12.4-29-12.4c-12,0-22.9,5.2-32.5,9.8c-7.6,3.6-14.7,7.1-20.3,7.1c-2.4,0-5.5-0.5-9.6-4.6c-4-3.9-10-5-15.2-2.8c-5.2,2.2-8.5,7.3-8.5,12.9v66.6c0,3.8,1.6,7.5,4.3,10.1c8.5,8.2,18.3,12.4,29,12.4h0c12,0,22.9-5.2,32.5-9.8c7.6-3.6,14.7-7.1,20.4-7.1c1.5,0,3.2,0.2,5.3,1.3v37.2H352.7c-31.8,0-57.6,25.8-57.6,57.6v124H101.3c-24.5,0-44.4,19.9-44.4,44.4v321.8H24c-7.7,0-14,6.3-14,14V870c0,7.7,6.3,14,14,14h952c7.7,0,14-6.3,14-14v-59.1C990,803.2,983.7,796.9,976,796.9z M722.1,458.7H915c9,0,16.4,7.3,16.4,16.4v321.8H722.1V458.7z M489.2,182.6c-12,0-22.9,5.2-32.5,9.9c-7.6,3.6-14.7,7.1-20.3,7.1c-1.5,0-3.2-0.2-5.3-1.3v-37.6c1.8,0.2,3.5,0.3,5.3,0.3c12,0,22.9-5.2,32.5-9.8c7.6-3.6,14.7-7.1,20.3-7.1c1.5,0,3.2,0.2,5.3,1.3V183C492.8,182.7,491,182.6,489.2,182.6z M323.1,306.7c0-16.3,13.3-29.6,29.6-29.6h311.9c16.3,0,29.5,13.3,29.5,29.6v490.2h-371V306.7z M84.9,475.1c0-9,7.4-16.4,16.4-16.4h193.8v338.2H84.9V475.1z M962,856H38v-31.1h924L962,856L962,856z"/></g>
</svg>